<?xml version="1.0" encoding="UTF-8" standalone="no"?><!DOCTYPE svg PUBLIC "-//W3C//DTD SVG 1.1//EN" "http://www.w3.org/Graphics/SVG/1.1/DTD/svg11.dtd"><svg width="100%" height="100%" viewBox="0 0 1036 1267" version="1.1" xmlns="http://www.w3.org/2000/svg" xmlns:xlink="http://www.w3.org/1999/xlink" xml:space="preserve" xmlns:serif="http://www.serif.com/" style="fill-rule:evenodd;clip-rule:evenodd;stroke-linecap:round;stroke-linejoin:round;stroke-miterlimit:10;"><g id="StellarGuard"><text id="Guard" x="547.915px" y="1540.76px" style="font-family:'DINNextLTPro-Light', 'DIN Next LT Pro', sans-serif;font-weight:300;font-size:197.124px;fill:#ee9a42;">Guar<tspan x="949.063px " y="1540.76px ">d</tspan></text><text id="Stellar" x="-12.114px" y="1540.76px" style="font-family:'DINNextLTPro-Light', 'DIN Next LT Pro', sans-serif;font-weight:300;font-size:197.124px;fill:#fff;">Stel<tspan x="317.083px " y="1540.76px ">l</tspan>ar</text><path id="Badge" d="M167.055,1038.04c-104.001,-127.446 -167.055,-292.12 -167.055,-462.706l0,-333.599c0,0 276.067,-57.117 517.8,-241.734l1.417,1.08c241.394,183.76 516.383,240.654 516.383,240.654l0,333.74l0,0c-0.064,319.257 -220.971,617.778 -517.8,690.26c-76.601,-18.705 -148.147,-52.464 -212.145,-97.749l0,0c0,0 -21.937,-13.868 -41.496,2c-12.01,9.743 -23.71,0.22 -16.111,-10.696c5.184,-7.446 8.005,-11.89 16.111,-23.142c34.245,-47.543 50.335,-64.901 41.496,-71.2c-11.05,-7.875 -48.843,65.203 -62.812,52.766c-13.969,-12.437 61.793,-93.682 48.859,-101.617c-9.153,-5.615 -30.431,30.533 -68.282,83.446c-6.8,9.506 -18.673,24.561 -26.185,36.605c-15.698,25.168 -26.32,13.316 -17.18,-9c20.819,-50.832 -13,-89.108 -13,-89.108l0,0Z" style="fill:#2b5283;"/><path id="Fire_big" d="M511.865,879.121c26.679,-38.174 17.446,-90.926 -20.58,-117.878c-38.039,-26.95 -90.47,-17.849 -117.111,20.315c-0.655,0.938 -1.191,1.912 -1.802,2.865c-46.471,68.712 -54.245,144.761 -16.889,171.216c37.363,26.48 105.819,-6.61 154.319,-73.86c0.682,-0.889 1.42,-1.724 2.063,-2.658Z" style="fill:#ee9a42;"/><path id="Fire_small" d="M500.531,849.811c18.777,-26.261 12.539,-62.383 -13.914,-80.693c-26.486,-18.329 -63.181,-11.881 -81.958,14.38c-0.478,0.646 -0.838,1.316 -1.274,1.965c-32.744,47.261 -38.482,99.418 -12.461,117.408c26.004,17.981 73.972,-4.953 108.131,-51.232c0.5,-0.611 1.011,-1.185 1.476,-1.828Z" style="fill:#f3ba47;"/><path id="Fin_right" d="M628.22,692.964c25.236,17.84 135.964,113.476 24.917,287.261c-3.39,5.303 -9.862,9.619 -10.326,-1.352c-1.347,-31.284 -14.131,-98.77 -92.806,-154.439c-106.251,-75.202 78.215,-131.47 78.215,-131.47Z" style="fill:#fff;"/><path id="Fin_left" d="M515.313,611.378c-25.656,-17.753 -154.729,-89.804 -283.181,75.098c-3.917,5.044 -5.845,12.643 4.804,9.319c30.379,-9.468 99.248,-20.54 179.235,34.87c108.016,74.827 99.142,-119.287 99.142,-119.287Z" style="fill:#fff;"/><path id="Frame" d="M782.418,347.291l-0.133,0.152l0.089,-0.186c-10.031,-7.104 -194.404,4.839 -263.316,118.856c-68.92,114.032 -128.802,224.879 -141.069,246.283c-12.265,21.415 -5.436,33.098 16.461,48.578c9.967,7.039 38.061,26.899 65.752,46.46c27.666,19.556 55.76,39.415 65.728,46.454c21.91,15.488 35.153,18.009 51.072,-0.831c15.907,-18.837 99.515,-112.906 183.043,-216.623c83.533,-103.696 32.415,-282.042 22.373,-289.143" style="fill:#fff;fill-rule:nonzero;stroke:#fff;stroke-width:20.94px;"/><path id="window" d="M585.379,498.79c23.675,-33.65 70.132,-41.685 103.756,-17.967c33.625,23.717 41.684,70.218 17.988,103.837c-23.667,33.635 -70.144,41.688 -103.768,17.97c-33.614,-23.72 -41.655,-70.201 -17.976,-103.84" style="fill:#2b5283;fill-rule:nonzero;"/></g></svg>